<?xml version="1.0" standalone="no"?>
<!DOCTYPE svg PUBLIC "-//W3C//DTD SVG 20010904//EN"
 "http://www.w3.org/TR/2001/REC-SVG-20010904/DTD/svg10.dtd">
<svg version="1.0" xmlns="http://www.w3.org/2000/svg"
 width="2362.000000pt" height="2362.000000pt" viewBox="0 0 2362.000000 2362.000000"
 preserveAspectRatio="xMidYMid meet">
<metadata>
Created by potrace 1.14, written by Peter Selinger 2001-2017
</metadata>
<g transform="translate(0.000000,2362.000000) scale(0.100000,-0.100000)"
fill="#000000" stroke="none">
<path d="M11766 23119 c-13 -11 -64 -79 -113 -152 -48 -72 -113 -163 -144
-202 -30 -38 -73 -99 -94 -135 -65 -109 -135 -211 -200 -290 -34 -41 -99 -129
-145 -195 -134 -192 -229 -321 -338 -460 -57 -71 -115 -146 -130 -165 -16 -19
-54 -73 -87 -120 -32 -47 -75 -103 -95 -125 -40 -42 -100 -122 -190 -250 -55
-78 -186 -252 -235 -312 -14 -17 -36 -51 -50 -75 -13 -23 -57 -82 -97 -130
-83 -99 -123 -153 -161 -220 -15 -25 -56 -78 -91 -117 -36 -38 -77 -89 -92
-113 -16 -24 -41 -57 -57 -75 -16 -17 -57 -69 -91 -116 -33 -46 -130 -175
-214 -286 -84 -111 -172 -232 -197 -269 -24 -38 -51 -75 -60 -82 -9 -7 -37
-45 -62 -84 -25 -39 -78 -111 -117 -161 -69 -86 -173 -225 -334 -449 -40 -55
-91 -119 -112 -141 -21 -22 -50 -59 -64 -83 -15 -23 -64 -89 -109 -145 -115
-141 -364 -474 -498 -664 -156 -223 -281 -389 -376 -503 -44 -54 -98 -126
-118 -161 -20 -34 -82 -121 -139 -193 -57 -72 -147 -192 -202 -266 -54 -74
-125 -167 -158 -206 -34 -38 -83 -103 -111 -143 -27 -41 -73 -101 -101 -135
-28 -34 -57 -72 -63 -84 -7 -12 -32 -45 -57 -73 -24 -28 -56 -68 -69 -89 -13
-21 -56 -78 -95 -127 -39 -48 -110 -146 -158 -217 -48 -71 -110 -155 -138
-185 -54 -60 -214 -270 -256 -336 -14 -22 -62 -87 -107 -145 -44 -57 -81 -111
-81 -120 0 -8 54 -124 120 -256 66 -133 120 -250 120 -259 0 -9 16 -47 35 -84
39 -74 117 -245 236 -512 44 -100 166 -362 271 -583 164 -346 348 -747 348
-760 0 -3 61 -132 136 -288 189 -393 333 -704 416 -898 78 -182 127 -282 247
-504 44 -82 111 -229 150 -326 78 -199 144 -350 286 -655 53 -115 135 -295
181 -398 86 -192 362 -773 484 -1017 37 -74 72 -156 78 -181 6 -25 64 -155
128 -290 222 -467 558 -1194 679 -1469 42 -96 121 -266 176 -377 54 -111 108
-225 119 -254 12 -28 54 -116 96 -194 41 -78 81 -167 90 -196 8 -30 80 -182
159 -339 155 -308 223 -456 435 -940 202 -463 253 -573 415 -910 202 -418 252
-529 362 -795 52 -126 114 -266 138 -310 24 -44 77 -159 119 -256 41 -97 118
-262 169 -365 52 -104 136 -278 187 -387 52 -108 99 -197 105 -197 6 0 31 46
55 103 24 56 88 194 142 307 55 113 121 259 147 325 27 66 68 156 93 201 25
45 91 191 148 325 143 341 239 556 335 754 96 195 167 351 220 480 20 50 81
180 135 290 53 110 101 211 105 225 14 47 217 465 241 497 14 18 42 77 64 131
21 54 72 166 112 249 92 189 96 199 157 360 27 73 95 220 149 325 55 106 117
240 137 298 20 58 67 166 105 240 63 123 280 572 352 730 35 76 178 410 178
415 0 2 38 88 85 192 47 103 103 235 125 293 21 58 74 179 118 270 74 154 149
321 270 600 125 289 221 490 248 520 7 9 20 34 28 55 7 22 47 110 89 195 41
85 147 319 236 518 89 200 214 477 278 615 63 139 123 272 133 297 10 25 47
101 83 170 36 69 73 154 82 190 10 41 27 76 44 95 16 17 45 73 65 125 21 52
64 138 97 191 67 110 123 237 215 494 35 99 69 187 74 195 29 44 58 108 116
253 74 185 86 210 124 252 15 17 36 55 45 85 27 84 137 335 194 444 28 53 51
104 51 112 0 8 21 58 46 112 25 53 54 120 64 147 20 58 174 367 201 407 11 14
19 37 19 51 0 29 89 214 168 347 52 90 249 511 259 556 4 16 -12 41 -59 95
-35 41 -88 112 -117 159 -75 119 -366 504 -572 756 -58 71 -143 179 -189 239
-47 61 -88 112 -93 114 -5 2 -38 47 -73 100 -35 53 -86 123 -113 156 -28 33
-76 97 -108 143 -32 45 -88 124 -126 175 -37 51 -84 117 -104 147 -20 30 -55
75 -78 100 -54 59 -82 100 -90 132 -4 14 -28 52 -54 85 -26 32 -82 105 -126
163 -43 58 -102 130 -130 160 -79 85 -142 166 -184 239 -39 66 -110 163 -250
342 -40 52 -132 175 -202 275 -71 99 -176 237 -232 305 -56 68 -137 169 -179
224 -42 55 -96 120 -120 145 -24 25 -83 101 -133 169 -49 68 -137 183 -195
255 -103 129 -160 208 -160 223 0 5 -25 37 -56 73 -31 36 -68 83 -83 105 -59
91 -181 250 -386 505 -230 286 -355 449 -366 478 -5 13 -22 40 -38 60 -16 20
-49 73 -73 117 -37 68 -51 84 -91 106 -39 21 -57 41 -97 107 -105 174 -199
305 -315 437 -38 44 -84 100 -100 124 -17 24 -62 81 -102 126 -39 45 -85 109
-101 141 -17 33 -42 70 -57 84 -30 27 -147 180 -187 245 -14 22 -35 49 -48 60
-12 11 -38 42 -58 70 -19 27 -50 66 -67 85 -18 19 -78 103 -134 185 -55 83
-118 173 -138 201 -21 29 -86 119 -146 201 -59 83 -118 155 -132 161 -19 9
-28 7 -49 -9z m131 -306 c104 -121 200 -249 213 -283 8 -19 50 -82 94 -140 44
-58 159 -208 254 -335 95 -126 188 -248 207 -270 40 -48 116 -159 141 -206 9
-19 41 -61 71 -94 30 -33 96 -114 146 -180 50 -66 112 -142 138 -170 25 -27
79 -99 119 -160 126 -188 862 -1154 995 -1306 17 -19 55 -78 84 -131 29 -52
85 -133 123 -179 38 -46 148 -190 243 -319 95 -129 200 -266 234 -305 33 -38
154 -194 268 -345 114 -151 279 -363 365 -472 86 -108 154 -199 151 -201 -2
-3 6 -13 20 -22 14 -9 42 -41 62 -73 21 -31 52 -75 69 -96 17 -22 31 -45 32
-52 1 -7 66 -92 143 -189 78 -97 153 -195 168 -218 15 -23 47 -65 70 -93 25
-29 43 -62 43 -75 0 -36 268 -412 847 -1186 193 -260 357 -483 364 -495 6 -13
37 -50 68 -84 31 -33 83 -103 116 -155 33 -52 77 -120 98 -152 l38 -58 -28 7
c-100 22 -240 65 -378 117 -358 133 -746 257 -1075 342 -91 24 -201 57 -245
74 -44 16 -172 55 -285 86 -228 63 -324 96 -372 128 -18 12 -78 33 -133 46
-126 30 -480 138 -605 185 -53 20 -120 40 -149 46 -114 21 -920 285 -937 306
-6 8 -21 14 -34 14 -23 0 -199 51 -260 76 -19 8 -59 19 -89 24 -30 6 -64 16
-75 23 -12 8 -55 26 -96 42 -41 15 -95 38 -120 50 -25 12 -70 28 -100 35 -30
7 -176 50 -325 96 -148 46 -282 86 -298 90 -15 3 -30 10 -33 15 -3 5 -21 9
-41 9 -20 0 -44 6 -52 14 -24 21 -102 45 -174 52 l-64 6 -7 -138 c-17 -371
-28 -1817 -32 -4439 -2 -1584 -5 -2889 -6 -2900 -1 -11 5 -193 12 -405 9 -269
11 -544 6 -910 -6 -468 -28 -2907 -27 -2970 0 -14 4 -119 8 -235 5 -115 5
-347 1 -515 -4 -187 -2 -363 4 -455 10 -140 9 -312 -7 -1965 -2 -162 -8 -360
-14 -440 -6 -80 -8 -161 -5 -180 2 -19 0 -48 -5 -65 -7 -21 -8 46 -3 215 8
276 8 286 4 1380 -1 437 -2 876 -3 974 0 99 -3 184 -6 189 -7 11 -20 1587 -13
1587 3 0 2 125 -2 277 -4 153 -4 280 0 283 4 3 7 273 8 600 0 327 3 793 6
1035 4 276 2 444 -4 452 -13 17 -25 1056 -15 1308 13 309 -4 2013 -23 2430 -6
119 -7 409 -4 670 5 306 3 546 -5 718 -17 363 -18 3823 -1 4327 7 201 9 426 5
500 -14 273 -20 921 -16 1745 1 176 0 464 -1 640 -2 252 -2 630 1 830 0 11 0
45 0 75 -2 94 -1 121 11 250 11 117 13 257 5 270 -4 7 -5 682 -1 815 2 80 26
231 40 253 12 20 22 14 73 -45z m-201 -6094 c-10 -6 -44 -11 -76 -10 -46 0
-74 -7 -132 -33 -40 -19 -100 -41 -133 -51 -33 -9 -77 -26 -99 -37 -22 -12
-70 -27 -106 -34 -143 -29 -397 -117 -550 -190 -141 -66 -303 -124 -351 -124
-10 0 -65 -18 -121 -39 -57 -21 -125 -42 -153 -46 -27 -4 -126 -39 -220 -77
-164 -68 -375 -140 -507 -173 -80 -20 -187 -55 -358 -118 -74 -27 -198 -71
-276 -97 -78 -26 -159 -57 -180 -68 -21 -11 -100 -41 -174 -67 -74 -26 -151
-55 -170 -65 -19 -9 -80 -32 -135 -49 -55 -18 -120 -42 -145 -55 -86 -45 -226
-95 -435 -156 -115 -33 -295 -90 -400 -124 -104 -35 -224 -72 -265 -82 -41
-10 -82 -23 -90 -30 -8 -6 -32 -17 -52 -23 -21 -7 -40 -17 -43 -22 -4 -5 -19
-9 -34 -9 -32 0 -165 -43 -197 -65 -28 -18 -416 -165 -437 -165 -8 0 -20 -6
-26 -14 -7 -8 -29 -17 -50 -21 -21 -3 -60 -17 -86 -31 -27 -13 -58 -24 -69
-24 -20 0 87 51 189 90 124 47 314 124 360 146 28 13 58 24 68 24 10 0 49 16
88 36 127 63 243 111 304 125 33 7 96 28 140 47 75 32 246 89 290 97 11 1 49
17 85 34 39 19 79 31 100 30 19 -1 59 8 88 20 29 11 65 21 80 21 16 0 49 13
74 29 68 43 135 70 212 87 38 8 83 20 100 28 65 28 206 77 332 116 71 21 161
53 200 70 38 18 101 43 139 57 39 14 88 35 110 48 22 12 92 39 155 60 63 20
131 45 150 55 40 20 119 44 136 42 6 -1 36 9 65 23 30 14 64 25 76 25 12 0 25
5 28 10 3 6 15 10 25 10 10 0 78 23 152 51 272 105 495 182 545 189 29 5 69
17 90 28 21 11 90 33 153 47 63 15 144 39 180 53 36 13 92 35 125 47 33 13 86
33 117 45 32 12 64 20 73 17 8 -4 17 -2 20 3 4 6 17 10 30 10 13 0 42 16 65
35 23 19 57 37 78 40 20 4 46 10 57 14 37 15 120 34 175 40 30 4 68 16 84 26
28 19 90 39 161 52 17 3 37 11 45 18 25 22 194 61 272 63 57 2 69 0 54 -9z
m-6150 -2124 c-10 -8 -23 -12 -29 -8 -11 7 12 23 33 23 12 -1 11 -4 -4 -15z
m12310 -104 c-3 -5 -18 -11 -33 -14 -26 -5 -26 -4 -8 9 21 15 49 19 41 5z
m-116 -33 c-14 -6 -50 -22 -80 -36 -30 -14 -62 -27 -70 -28 -19 -3 -280 -110
-300 -124 -27 -17 -102 -50 -116 -50 -7 0 -76 -27 -154 -60 -78 -32 -205 -79
-283 -104 -78 -24 -164 -54 -190 -65 -27 -11 -59 -23 -73 -25 -50 -9 -171 -49
-235 -77 -36 -16 -82 -29 -102 -29 -20 0 -59 -9 -87 -20 -28 -11 -63 -20 -78
-20 -16 0 -50 -14 -77 -31 -27 -17 -54 -32 -60 -33 -5 -1 -20 -7 -32 -14 -12
-7 -52 -19 -90 -27 -70 -16 -132 -36 -243 -78 -36 -14 -115 -39 -175 -57 -111
-31 -241 -77 -260 -91 -13 -9 -173 -69 -185 -69 -4 0 -6 8 -3 18 6 23 162 84
598 236 66 23 135 50 153 60 69 36 213 86 422 146 118 34 303 90 410 125 107
34 222 69 255 76 33 7 67 17 75 24 23 18 169 72 228 84 29 6 74 21 100 34 26
13 133 54 237 92 105 37 208 76 231 86 23 10 48 19 57 19 8 0 39 11 69 25 29
14 60 25 68 24 8 0 4 -5 -10 -11z m-12146 -23 c-4 -10 0 -16 12 -16 42 -4 51
-5 105 -17 49 -11 56 -16 52 -32 -5 -17 0 -20 28 -20 18 0 40 -6 48 -14 9 -8
56 -23 105 -32 50 -10 90 -23 93 -31 3 -7 18 -13 33 -13 29 0 208 -45 218 -55
3 -3 -9 -5 -27 -5 -19 0 -30 -4 -26 -10 9 -14 51 -13 75 2 16 10 24 9 47 -8
15 -11 52 -24 81 -27 45 -5 356 -103 552 -173 36 -13 97 -28 135 -34 39 -6
104 -26 145 -45 41 -18 138 -47 215 -64 148 -33 314 -85 429 -133 84 -36 230
-87 351 -122 50 -15 169 -51 265 -81 162 -49 271 -81 490 -141 47 -13 135 -40
195 -59 61 -19 143 -42 184 -50 115 -24 168 -41 416 -132 127 -47 286 -104
355 -125 69 -22 170 -58 225 -80 55 -22 139 -49 188 -59 48 -10 118 -32 156
-49 38 -16 81 -30 95 -30 25 0 220 -55 381 -108 44 -14 89 -25 99 -24 10 0 33
-7 50 -16 31 -16 31 -16 6 -20 -13 -2 -26 1 -28 7 -2 6 -12 11 -22 11 -11 0
-81 16 -156 35 -75 19 -142 34 -148 33 -17 -3 -90 13 -102 22 -5 5 -77 25
-160 45 -82 20 -221 60 -309 90 -89 30 -170 55 -180 55 -11 0 -33 7 -49 15
-45 24 -163 64 -234 80 -65 15 -97 29 -119 50 -7 7 -29 16 -49 20 -21 3 -59
17 -85 30 -26 14 -64 25 -85 26 -64 2 -135 20 -216 55 -42 19 -83 34 -92 34
-9 0 -24 4 -34 9 -9 6 -51 19 -92 31 -41 12 -118 37 -170 57 -88 32 -277 85
-430 120 -36 8 -129 34 -207 59 -78 24 -149 44 -157 44 -23 0 -116 32 -116 41
0 4 -24 12 -52 19 -29 7 -66 18 -83 26 -44 19 -202 65 -424 124 -187 49 -265
78 -343 126 -20 13 -56 27 -80 30 -23 4 -70 20 -103 35 -76 34 -160 56 -250
65 -49 5 -95 18 -152 44 -44 21 -105 41 -134 45 -66 9 -165 37 -207 59 -18 9
-36 15 -41 12 -10 -7 -81 15 -81 25 0 5 8 5 18 2 15 -6 15 -5 3 11 -11 13 -27
17 -65 15 -49 -2 -121 14 -140 32 -6 5 -19 9 -30 9 -17 0 -18 2 -6 10 12 8 12
10 -4 16 -11 4 -21 2 -26 -6 -7 -11 -12 -10 -25 3 -9 10 -23 17 -32 17 -9 0
-30 8 -47 18 -17 11 -57 25 -88 32 -48 11 -56 16 -46 27 10 12 3 14 -43 14
-81 -1 -92 0 -85 6 6 6 -30 36 -54 46 -8 3 8 6 37 6 43 1 51 -2 47 -14z m5889
-1836 c20 -5 37 -14 37 -19 0 -5 -19 -3 -42 5 -24 8 -52 16 -63 18 -16 4 -15
5 5 6 14 0 42 -4 63 -10z m132 -49 c7 -12 -12 -12 -40 0 -18 8 -17 9 7 9 15 1
30 -3 33 -9z m222 -11682 c-3 -7 -5 -2 -5 12 0 14 2 19 5 13 2 -7 2 -19 0 -25z
m11 -133 c0 -16 -2 -15 -8 5 -11 34 -11 60 0 35 5 -11 8 -29 8 -40z"/>
</g>
</svg>
